<svg width="21" height="17" fill="none" xmlns="http://www.w3.org/2000/svg"><path d="M20.315 1.179C18.084 2.32 17.027 2.663 12.8 3.69c1.409 1.902 4.075 5.94 4.168 5.118.118-1.027 2.76-4.32 3.347-7.63Z" fill="#fff"/><path d="M19.846 1.864c-1.953 1.034-2.878 1.344-6.576 2.274 2.348 1.38 3.558 4.75 3.64 4.005.102-.93 2.422-3.281 2.936-6.28Z" fill="#D3A5A7"/><path d="M0 .722c.47.274 3.875 2.17 5.402 2.969-.979.913-3.17 2.74-3.17 2.283C2.231 5.404 0 1.75 0 .722Z" fill="#fff"/><path d="M.352 1.179c.406.25 3.262 1.78 4.58 2.512-1.644.572-2.466 2.359-2.466 1.94 0-.523-2.114-3.51-2.114-4.452Z" fill="#D3A5A7"/><path d="M1.409 7.188c2-5.208 7.335-3.623 7.668-3.736C15.746 2.32 17.08 8.32 17.08 8.659c0 .34-.35 2.58-3.223 4.868-2.876 2.29-4.779 3.261-9.224 2.49-1.046-.181-5.223-3.622-3.223-8.83Z" fill="#fff"/><path d="M5.192 11.004c-.105.022-.176.089-.176.166-.02.353.027.72-.01.89-.036.094.048.189.187.214.14.025.28-.031.316-.125.005-.013.005-.027.005-.04.053-.258-.009-.601.01-.924.01-.097-.098-.179-.242-.187a.27.27 0 0 0-.09.006Z" fill="#A07476"/><path d="M4.01 7.954c.39.253.597.729.651.935-.263-.043-.892-.17-1.299-.33-.406-.161-.692-.706-.784-.958.315.012 1.041.1 1.431.353Zm5.047.093c-.686.228-1.13.715-1.266.93.434-.015 1.473-.079 2.162-.206.69-.126 1.276-.678 1.483-.939-.508-.023-1.694-.012-2.38.215Z" fill="#000"/><path d="M6.81 10.54c-.15-.233-2.28-.593-2.583-.36.034.684.662 1.168 1.061 1.245.466 0 1.328-.42 1.523-.884Z" fill="#A07476"/><path d="M5.328 12.139c1.104 0 1.104.875 2.768 1.63 0 0-1.91-.205-2.768-.222-.915-.02-1.78-.533-1.78-.533.888-.323 1-.875 1.78-.875Z" fill="#431D1C"/><path d="M5.617 12.799c.47 0 .483.215 1.37.811 0 0-.892.012-1.37 0-.51-.012-1.403-.272-1.403-.272.587-.571.933-.54 1.403-.54Z" fill="#CF9799"/></svg>